<svg xmlns="http://www.w3.org/2000/svg" width="19" height="18" viewBox="0 0 19 18" fill="none">
    <g clip-path="url(#clip0_252_1449)">
        <path d="M14.75 12.75C13.9599 12.7497 13.1838 12.5412 12.5 12.1455C11.8162 12.5412 11.0401 12.7497 10.25 12.75H8.75C7.95882 12.749 7.18219 12.5372 6.5 12.1365C5.81784 12.5373 5.04119 12.749 4.25 12.75H3.5C2.70922 12.7497 1.93271 12.5393 1.25 12.1402V15.75C1.25 16.3467 1.48705 16.919 1.90901 17.341C2.33097 17.7629 2.90326 18 3.5 18H15.5C16.0967 18 16.669 17.7629 17.091 17.341C17.5129 16.919 17.75 16.3467 17.75 15.75V12.141C17.0671 12.5395 16.2907 12.7496 15.5 12.75H14.75Z" fill="white"/>
        <path d="M13.25 0V4.5H11.75V0H7.25V4.5H5.75V0H2.15L0.518 7.33725L0.5 8.25C0.5 9.04565 0.816071 9.80871 1.37868 10.3713C1.94129 10.9339 2.70435 11.25 3.5 11.25H4.25C4.67742 11.2486 5.09955 11.1554 5.48776 10.9765C5.87597 10.7977 6.22118 10.5375 6.5 10.2135C6.77882 10.5375 7.12403 10.7977 7.51224 10.9765C7.90045 11.1554 8.32258 11.2486 8.75 11.25H10.25C10.6759 11.2502 11.0969 11.1596 11.4849 10.984C11.8729 10.8085 12.219 10.5522 12.5 10.2323C12.781 10.5522 13.1271 10.8085 13.5151 10.984C13.9031 11.1596 14.3241 11.2502 14.75 11.25H15.5C16.2956 11.25 17.0587 10.9339 17.6213 10.3713C18.1839 9.80871 18.5 9.04565 18.5 8.25V7.5L16.85 0H13.25Z" fill="white"/>
    </g>
    <defs>
        <clipPath id="clip0_252_1449">
            <rect width="18" height="18" fill="white" transform="translate(0.5)"/>
        </clipPath>
    </defs>
</svg>