<svg xmlns="http://www.w3.org/2000/svg" width="19" height="18" viewBox="0 0 19 18" fill="none">
    <path d="M6.125 9.75C5.45749 9.75 4.80497 9.55206 4.24995 9.18121C3.69493 8.81036 3.26235 8.28326 3.00691 7.66656C2.75146 7.04986 2.68462 6.37126 2.81485 5.71657C2.94507 5.06189 3.26651 4.46052 3.73851 3.98852C4.21052 3.51651 4.81188 3.19508 5.46657 3.06485C6.12126 2.93463 6.79986 3.00146 7.41656 3.25691C8.03326 3.51235 8.56036 3.94494 8.93121 4.49995C9.30206 5.05497 9.5 5.70749 9.5 6.375C9.49901 7.2698 9.14311 8.12767 8.51039 8.76039C7.87767 9.39311 7.0198 9.74901 6.125 9.75ZM11 18H1.25C1.05109 18 0.860322 17.921 0.71967 17.7803C0.579018 17.6397 0.5 17.4489 0.5 17.25V16.875C0.5 15.3832 1.09263 13.9524 2.14752 12.8975C3.20242 11.8426 4.63316 11.25 6.125 11.25C7.61684 11.25 9.04758 11.8426 10.1025 12.8975C11.1574 13.9524 11.75 15.3832 11.75 16.875V17.25C11.75 17.4489 11.671 17.6397 11.5303 17.7803C11.3897 17.921 11.1989 18 11 18ZM13.625 6.75C12.9575 6.75 12.305 6.55206 11.75 6.18121C11.1949 5.81036 10.7624 5.28326 10.5069 4.66656C10.2515 4.04986 10.1846 3.37126 10.3148 2.71657C10.4451 2.06189 10.7665 1.46052 11.2385 0.988516C11.7105 0.516514 12.3119 0.195076 12.9666 0.0648512C13.6213 -0.0653739 14.2999 0.00146234 14.9166 0.256908C15.5333 0.512354 16.0604 0.944936 16.4312 1.49995C16.8021 2.05497 17 2.70749 17 3.375C16.999 4.2698 16.6431 5.12767 16.0104 5.76039C15.3777 6.39311 14.5198 6.74901 13.625 6.75ZM12.5592 8.26575C11.8607 8.35947 11.1891 8.59643 10.5864 8.96179C9.98368 9.32715 9.46293 9.81303 9.05675 10.389C10.7374 11.1522 12.058 12.5357 12.7423 14.25H17.75C17.9489 14.25 18.1397 14.171 18.2803 14.0303C18.421 13.8897 18.5 13.6989 18.5 13.5V13.4715C18.4992 12.7239 18.339 11.9851 18.0299 11.3043C17.7209 10.6236 17.2702 10.0166 16.708 9.52392C16.1457 9.03122 15.4848 8.66413 14.7694 8.44717C14.0539 8.2302 13.3005 8.16836 12.5592 8.26575Z" fill="white"/>
</svg>