<svg xmlns="http://www.w3.org/2000/svg" width="19" height="18" viewBox="0 0 19 18" fill="none">
    <g clip-path="url(#clip0_252_1445)">
        <path d="M9.5 18C9.08375 18 8.66825 17.9422 8.264 17.8267L3.2195 16.386C1.61825 15.9285 0.5 14.4457 0.5 12.78V2.99998C0.5 2.58598 0.836 2.24998 1.25 2.24998C1.664 2.24998 2 2.58598 2 2.99998V12.78C2 13.7797 2.67125 14.6692 3.632 14.9437L8.6765 16.3845C9.21575 16.5382 9.785 16.5382 10.325 16.3845L15.3688 14.9437C16.3295 14.6692 17.0008 13.7797 17.0008 12.78V2.24998C17.0008 1.83598 17.3368 1.49998 17.7508 1.49998C18.1648 1.49998 18.5008 1.83598 18.5008 2.24998V12.78C18.5008 14.445 17.3825 15.9277 15.7813 16.386L10.7368 17.8267C10.3318 17.9422 9.91625 18 9.50075 18H9.5ZM14.0173 0.116228C13.4713 -0.0855219 12.863 -0.0352719 12.3223 0.180728L11.6645 0.443228C10.8103 0.784478 10.2493 1.61248 10.2493 2.53273V13.4047C10.0033 13.4677 9.752 13.5 9.49925 13.5C9.2465 13.5 8.99525 13.4677 8.74925 13.4047V2.53273C8.74925 1.61248 8.189 0.784478 7.334 0.443228L6.6755 0.179978C6.13475 -0.0360219 5.5265 -0.0862719 4.9805 0.116228C4.06925 0.453728 3.4985 1.30348 3.4985 2.23273V11.7682C3.4985 12.7725 4.1645 13.6552 5.12975 13.9312L8.26175 14.8267C8.66525 14.9415 9.0815 14.9992 9.49775 14.9992C9.914 14.9992 10.3303 14.9415 10.7338 14.8267L13.8658 13.9312C14.8318 13.6552 15.497 12.7725 15.497 11.7682V2.23273C15.497 1.30348 14.9255 0.452978 14.0143 0.116228H14.0173Z" fill="white"/>
    </g>
    <defs>
        <clipPath id="clip0_252_1445">
            <rect width="18" height="18" fill="white" transform="translate(0.5)"/>
        </clipPath>
    </defs>
</svg>