<svg xmlns="http://www.w3.org/2000/svg" width="19" height="18" viewBox="0 0 19 18" fill="none">
    <path d="M11.0443 12H11.75C16.7323 12 18.5 9.375 18.5 7.125C18.4983 6.50636 18.2782 5.90818 17.8785 5.43601C17.4788 4.96383 16.9251 4.64801 16.3153 4.54425C16.5979 3.9539 16.8127 3.33345 16.9557 2.69475C17.0224 2.37052 17.0156 2.03551 16.9361 1.71421C16.8565 1.39291 16.7062 1.09346 16.496 0.837753C16.2831 0.575556 16.0143 0.36426 15.7092 0.219314C15.4041 0.0743687 15.0705 -0.000561401 14.7327 3.16677e-06H4.26725C3.92949 -0.000561401 3.59588 0.0743687 3.29081 0.219314C2.98574 0.36426 2.71691 0.575556 2.504 0.837753C2.29382 1.09346 2.14346 1.39291 2.06391 1.71421C1.98437 2.03551 1.97765 2.37052 2.04425 2.69475C2.1875 3.33343 2.40184 3.95404 2.68325 4.545C2.07377 4.64905 1.52057 4.9649 1.12117 5.43689C0.721761 5.90888 0.501782 6.5067 0.5 7.125C0.5 9.375 2.26775 12 7.25 12H7.94975C7.97783 12.1579 7.99462 12.3175 8 12.4778V15C8.01289 15.2003 7.98292 15.4011 7.9121 15.5889C7.84127 15.7768 7.73122 15.9473 7.58927 16.0893C7.44733 16.2312 7.27676 16.3413 7.08893 16.4121C6.9011 16.4829 6.70033 16.5129 6.5 16.5H4.25V18H14.75V16.5H12.5C12.2992 16.5135 12.0979 16.4841 11.9095 16.4135C11.721 16.343 11.5498 16.2331 11.4072 16.0911C11.2647 15.9491 11.1541 15.7783 11.0828 15.5902C11.0115 15.402 10.9813 15.2008 10.994 15V12.4778C10.9997 12.3175 11.0165 12.1579 11.0443 12ZM12.1077 10.0118C13.4636 8.87554 14.6187 7.51937 15.5248 6H15.875C16.1734 6 16.4595 6.11853 16.6705 6.32951C16.8815 6.54049 17 6.82663 17 7.125C17 8.757 15.506 10.5 11.6353 10.5C11.7716 10.318 11.9303 10.154 12.1077 10.0118ZM2 7.125C2 6.82663 2.11853 6.54049 2.3295 6.32951C2.54048 6.11853 2.82663 6 3.125 6H3.473C4.37723 7.51955 5.53115 8.87581 6.88625 10.0118C7.06332 10.1544 7.22203 10.3184 7.35875 10.5C3.488 10.5 2 8.757 2 7.125Z" fill="white"/>
</svg>